<?xml version="1.0" encoding="UTF-8"?>
<svg width="74px" height="59px" viewBox="0 0 74 59" xmlns="http://www.w3.org/2000/svg" xmlns:xlink="http://www.w3.org/1999/xlink" version="1.1">
 <!-- Generated by Pixelmator Pro 1.3.4 -->
 <path id="path" d="M73 0.25 L10 0.25 C9.447 0.25 9 0.697 9 1.25 L9 4.75 5.5 4.75 C4.947 4.75 4.5 5.197 4.5 5.75 L4.5 9.25 1 9.25 C0.447 9.25 0 9.697 0 10.25 L0 46.25 C0 46.803 0.447 47.25 1 47.25 L64 47.25 C64.553 47.25 65 46.803 65 46.25 L65 42.75 68.5 42.75 C69.053 42.75 69.5 42.303 69.5 41.75 L69.5 38.25 73 38.25 C73.553 38.25 74 37.803 74 37.25 L74 1.25 C74 0.697 73.553 0.25 73 0.25 Z M63 45.25 L2 45.25 2 11.25 4.5 11.25 4.5 41.75 C4.5 42.303 4.947 42.75 5.5 42.75 L63 42.75 63 45.25 Z M67.5 40.75 L64 40.75 6.5 40.75 6.5 10.25 6.5 6.75 9 6.75 9 37.25 C9 37.803 9.447 38.25 10 38.25 L67.5 38.25 67.5 40.75 Z M72 36.25 L68.5 36.25 11 36.25 11 5.75 11 2.25 72 2.25 72 36.25 Z" fill="#000000" fill-opacity="1" stroke="none"/>
 <path id="path-1" d="M14.5 33.75 L32.5 33.75 C33.053 33.75 33.5 33.303 33.5 32.75 33.5 32.197 33.053 31.75 32.5 31.75 L19.904 31.75 C19.492 29.519 17.731 27.758 15.5 27.346 L15.5 11.154 C17.731 10.742 19.492 8.981 19.904 6.75 L32.5 6.75 C33.053 6.75 33.5 6.303 33.5 5.75 33.5 5.197 33.053 4.75 32.5 4.75 L14.5 4.75 C13.947 4.75 13.5 5.197 13.5 5.75 L13.5 32.75 C13.5 33.303 13.947 33.75 14.5 33.75 Z M17.837 31.75 L15.5 31.75 15.5 29.413 C16.622 29.751 17.499 30.628 17.837 31.75 Z M15.5 6.75 L17.837 6.75 C17.499 7.872 16.622 8.749 15.5 9.087 L15.5 6.75 Z" fill="#000000" fill-opacity="1" stroke="none"/>
 <path id="path-2" d="M63.096 31.75 L50.5 31.75 C49.947 31.75 49.5 32.197 49.5 32.75 49.5 33.303 49.947 33.75 50.5 33.75 L68.5 33.75 C69.053 33.75 69.5 33.303 69.5 32.75 L69.5 5.75 C69.5 5.197 69.053 4.75 68.5 4.75 L50.5 4.75 C49.947 4.75 49.5 5.197 49.5 5.75 49.5 6.303 49.947 6.75 50.5 6.75 L63.096 6.75 C63.508 8.981 65.269 10.742 67.5 11.154 L67.5 27.345 C65.269 27.758 63.508 29.519 63.096 31.75 Z M67.5 31.75 L65.163 31.75 C65.501 30.628 66.378 29.751 67.5 29.413 L67.5 31.75 Z M65.163 6.75 L67.5 6.75 67.5 9.087 C66.378 8.749 65.501 7.872 65.163 6.75 Z" fill="#000000" fill-opacity="1" stroke="none"/>
 <path id="path-3" d="M38 23.75 C38 23.197 37.553 22.75 37 22.75 36.447 22.75 36 23.197 36 23.75 36 26.44 37.944 28.682 40.5 29.154 L40.5 32.75 C40.5 33.303 40.947 33.75 41.5 33.75 42.053 33.75 42.5 33.303 42.5 32.75 L42.5 29.154 C45.056 28.682 47 26.44 47 23.75 47 21.06 45.056 18.818 42.5 18.346 L42.5 11.413 C43.94 11.847 45 13.17 45 14.75 45 15.303 45.447 15.75 46 15.75 46.553 15.75 47 15.303 47 14.75 47 12.06 45.056 9.818 42.5 9.346 L42.5 5.75 C42.5 5.197 42.053 4.75 41.5 4.75 40.947 4.75 40.5 5.197 40.5 5.75 L40.5 9.346 C37.944 9.818 36 12.06 36 14.75 36 17.44 37.944 19.682 40.5 20.154 L40.5 27.087 C39.06 26.653 38 25.33 38 23.75 Z M45 23.75 C45 25.33 43.94 26.653 42.5 27.087 L42.5 20.413 C43.94 20.847 45 22.17 45 23.75 Z M38 14.75 C38 13.17 39.06 11.847 40.5 11.413 L40.5 18.087 C39.06 17.653 38 16.33 38 14.75 Z" fill="#000000" fill-opacity="1" stroke="none"/>
</svg>
