<?xml version="1.0" encoding="UTF-8"?>
<svg width="74px" height="59px" viewBox="0 0 64 80" xmlns="http://www.w3.org/2000/svg" xmlns:xlink="http://www.w3.org/1999/xlink" version="1.1">
 <!-- Generated by Pixelmator Pro 1.3.4 -->
 <path id="path" d="M57.811 25.323 L57.811 19.992 C57.806 15.075 53.821 11.091 48.905 11.086 L15.094 11.086 C10.178 11.091 6.194 15.075 6.188 19.992 L6.188 25.323 C3.764 25.803 2.015 27.928 2.011 30.399 L2.011 38.938 C2.02 43.613 5.197 47.688 9.729 48.838 L9.729 51.914 C9.729 52.179 9.835 52.434 10.022 52.621 10.21 52.809 10.464 52.914 10.729 52.914 L14.541 52.914 C15.092 52.914 15.54 52.468 15.541 51.917 L15.548 49.161 48.452 49.161 48.459 51.917 C48.46 52.468 48.907 52.914 49.459 52.914 L53.27 52.914 C53.536 52.914 53.79 52.809 53.977 52.621 54.165 52.434 54.27 52.179 54.27 51.914 L54.27 48.838 C58.803 47.688 61.979 43.613 61.988 38.938 L61.988 30.399 C61.984 27.928 60.236 25.803 57.812 25.323 Z M15.094 13.086 L48.905 13.086 C52.717 13.09 55.807 16.18 55.811 19.992 L55.811 25.323 C53.387 25.803 51.638 27.928 51.634 30.399 L51.634 35.525 C51.632 37.155 50.312 38.476 48.682 38.478 L15.318 38.478 C13.688 38.476 12.367 37.155 12.365 35.525 L12.365 30.399 C12.362 27.928 10.613 25.803 8.188 25.323 L8.188 19.992 C8.193 16.179 11.282 13.09 15.095 13.086 Z M13.543 50.914 L11.73 50.914 11.73 49.136 C11.899 49.144 12.065 49.161 12.236 49.161 L13.548 49.161 Z M52.27 50.914 L50.456 50.914 50.452 49.161 51.764 49.161 C51.935 49.161 52.102 49.144 52.27 49.136 Z M59.988 38.938 C59.983 43.477 56.304 47.156 51.765 47.161 L12.235 47.161 C7.696 47.156 4.017 43.477 4.011 38.938 L4.011 30.399 C4.011 28.645 5.434 27.222 7.188 27.222 8.943 27.222 10.365 28.645 10.365 30.399 L10.365 35.525 C10.369 38.259 12.584 40.475 15.318 40.478 L48.681 40.478 C51.416 40.475 53.631 38.259 53.634 35.525 L53.634 30.399 C53.634 28.645 55.057 27.222 56.811 27.222 58.566 27.222 59.988 28.645 59.988 30.399 Z M38.983 25 C38.983 24.415 39.335 23.888 39.875 23.664 40.415 23.441 41.037 23.564 41.451 23.978 41.864 24.391 41.988 25.013 41.764 25.553 41.54 26.093 41.013 26.446 40.428 26.446 39.63 26.446 38.983 25.798 38.983 25 Z M22.267 25 C22.267 24.415 22.619 23.888 23.159 23.664 23.7 23.441 24.321 23.564 24.735 23.978 25.148 24.391 25.272 25.013 25.048 25.553 24.824 26.094 24.297 26.446 23.712 26.446 22.914 26.446 22.267 25.798 22.267 25 Z" fill="#000000" fill-opacity="1" stroke="none"/>
</svg>
