<?xml version="1.0" encoding="UTF-8"?>
<svg width="74px" height="59px" viewBox="0 0 100 125" xmlns="http://www.w3.org/2000/svg" xmlns:xlink="http://www.w3.org/1999/xlink" version="1.1">
 <!-- Generated by Pixelmator Pro 1.3.4 -->
 <path id="path" d="M30.91 69.44 C30.91 70.17 31.5 70.77 32.24 70.77 32.98 70.77 33.57 70.18 33.57 69.44 33.56 60.37 40.93 53 50 53 59.07 53 66.44 60.38 66.44 69.44 66.44 70.17 67.03 70.77 67.77 70.77 68.5 70.77 69.1 70.18 69.1 69.44 69.1 61 63.59 53.84 55.99 51.32 59.5 49.25 61.89 45.47 61.89 41.11 61.89 34.56 56.56 29.23 50.01 29.23 43.46 29.23 38.13 34.56 38.13 41.11 38.13 45.47 40.52 49.25 44.03 51.32 36.41 53.84 30.91 61 30.91 69.44 Z M40.77 41.11 C40.77 36.02 44.91 31.88 50 31.88 55.09 31.88 59.23 36.02 59.23 41.11 59.23 46.2 55.09 50.34 50 50.34 44.91 50.34 40.77 46.21 40.77 41.11 Z" fill="#000000" fill-opacity="1" stroke="none"/>
 <path id="path-1" d="M80.2 50.97 C82.72 49.25 84.38 46.36 84.38 43.08 84.38 37.81 80.1 33.53 74.83 33.53 69.56 33.53 65.28 37.81 65.28 43.08 65.28 46.36 66.95 49.26 69.48 50.98 67.87 51.6 66.37 52.49 65.04 53.63 64.49 54.11 64.43 54.95 64.91 55.5 65.39 56.06 66.23 56.11 66.78 55.63 69 53.7 71.85 52.63 74.78 52.62 74.8 52.62 74.81 52.63 74.83 52.63 74.85 52.63 74.87 52.62 74.89 52.62 81.77 52.65 87.36 58.26 87.36 65.15 87.36 65.88 87.95 66.48 88.69 66.48 89.43 66.48 90 65.89 90 65.16 90 58.67 85.92 53.14 80.2 50.97 Z M74.9 49.97 C74.88 49.97 74.86 49.97 74.84 49.97 74.82 49.97 74.8 49.98 74.78 49.98 71 49.95 67.93 46.87 67.93 43.08 67.93 39.27 71.03 36.18 74.83 36.18 78.64 36.18 81.73 39.27 81.73 43.08 81.73 46.86 78.67 49.93 74.9 49.97 Z" fill="#000000" fill-opacity="1" stroke="none"/>
 <path id="path-2" d="M11.33 66.48 C12.06 66.48 12.66 65.89 12.66 65.15 12.66 58.25 18.25 52.64 25.13 52.62 25.15 52.62 25.17 52.63 25.19 52.63 25.21 52.63 25.22 52.63 25.24 52.62 28.18 52.63 31.02 53.7 33.24 55.63 33.79 56.11 34.63 56.05 35.11 55.5 35.59 54.95 35.53 54.11 34.98 53.63 33.66 52.48 32.15 51.6 30.54 50.98 33.07 49.26 34.74 46.36 34.74 43.08 34.74 37.81 30.46 33.53 25.19 33.53 19.92 33.53 15.64 37.81 15.64 43.08 15.64 46.36 17.3 49.25 19.82 50.97 14.1 53.15 10.02 58.68 10.02 65.16 10 65.89 10.59 66.48 11.33 66.48 Z M18.27 43.08 C18.27 39.27 21.37 36.18 25.17 36.18 28.98 36.18 32.07 39.27 32.07 43.08 32.07 46.87 29 49.95 25.22 49.98 25.2 49.98 25.18 49.97 25.16 49.97 25.14 49.97 25.12 49.97 25.1 49.97 21.33 49.93 18.27 46.86 18.27 43.08 Z" fill="#000000" fill-opacity="1" stroke="none"/>
</svg>
